<svg xmlns="http://www.w3.org/2000/svg" viewBox="0 0 200 200"><title>colony_identity_r1</title><g id="logos"><circle cx="100" cy="59.65" r="13.7" style="fill:#fff"/><circle cx="100" cy="140.35" r="13.7" style="fill:#fff"/><circle cx="140.35" cy="100" r="13.7" style="fill:#fff"/><circle cx="59.65" cy="100" r="13.7" style="fill:#fff"/><rect x="84.49" y="84.49" width="31.01" height="31.01" transform="translate(100 -41.42) rotate(45)" style="fill:#fff"/><polygon points="124.67 75.32 124.67 51.85 148.14 75.32 124.67 75.32" style="fill:#fff"/><polygon points="75.33 75.33 51.86 75.33 75.33 51.86 75.33 75.33" style="fill:#fff"/><polygon points="75.33 124.67 75.33 148.14 51.86 124.67 75.33 124.67" style="fill:#fff"/><polygon points="124.67 124.66 148.14 124.66 124.67 148.13 124.67 124.66" style="fill:#fff"/><circle cx="100" cy="59.65" r="13.7" style="fill:#fff"/><circle cx="100" cy="140.35" r="13.7" style="fill:#fff"/><circle cx="140.35" cy="100" r="13.7" style="fill:#fff"/><circle cx="59.65" cy="100" r="13.7" style="fill:#fff"/><rect x="84.49" y="84.49" width="31.01" height="31.01" transform="translate(100 -41.42) rotate(45)" style="fill:#fff"/><polygon points="124.67 75.32 124.67 51.85 148.14 75.32 124.67 75.32" style="fill:#fff"/><polygon points="75.33 75.33 51.86 75.33 75.33 51.86 75.33 75.33" style="fill:#fff"/><polygon points="75.33 124.67 75.33 148.14 51.86 124.67 75.33 124.67" style="fill:#fff"/><polygon points="124.67 124.66 148.14 124.66 124.67 148.13 124.67 124.66" style="fill:#fff"/></g></svg>