<svg xmlns="http://www.w3.org/2000/svg" viewBox="0 0 185 175"><title>colony_identity_r1</title><g id="logos"><circle cx="92.24" cy="40.47" r="9.63" style="fill:#fff"/><circle cx="92.24" cy="97.17" r="9.63" style="fill:#fff"/><circle cx="120.59" cy="68.82" r="9.63" style="fill:#fff"/><circle cx="63.88" cy="68.82" r="9.63" style="fill:#fff"/><rect x="81.34" y="57.92" width="21.79" height="21.79" transform="translate(75.68 -45.06) rotate(45)" style="fill:#fff"/><polygon points="109.57 51.48 109.57 34.99 126.06 51.48 109.57 51.48" style="fill:#fff"/><polygon points="74.9 51.49 58.41 51.49 74.9 35 74.9 51.49" style="fill:#fff"/><polygon points="74.9 86.15 74.9 102.64 58.41 86.15 74.9 86.15" style="fill:#fff"/><polygon points="109.57 86.15 126.06 86.15 109.57 102.64 109.57 86.15" style="fill:#fff"/><path d="M45.35,139a8.71,8.71,0,0,1-1.11,1,7.43,7.43,0,0,1-1.35.78,8.3,8.3,0,0,1-1.55.52,7.43,7.43,0,0,1-1.72.19,8.32,8.32,0,0,1-2.19-.28,8.21,8.21,0,0,1-2-.79,7.83,7.83,0,0,1-1.65-1.22,8.12,8.12,0,0,1-1.28-1.59,8,8,0,0,1-.83-1.89,7.71,7.71,0,0,1,0-4.19,7.91,7.91,0,0,1,.83-1.88A8.12,8.12,0,0,1,33.82,128a8.59,8.59,0,0,1,1.65-1.22,8.21,8.21,0,0,1,2-.79,8.32,8.32,0,0,1,2.19-.28,7.84,7.84,0,0,1,1.7.18,8.48,8.48,0,0,1,1.52.51,7.4,7.4,0,0,1,1.34.77,9.28,9.28,0,0,1,1.17,1l-2.13,2.26a4.27,4.27,0,0,0-1.6-1.25,4.61,4.61,0,0,0-2-.45,4.67,4.67,0,0,0-1.83.37,4.79,4.79,0,0,0-1.51,1,5.08,5.08,0,0,0-1,1.54,5.14,5.14,0,0,0-.36,1.93,5,5,0,0,0,.36,1.92,4.85,4.85,0,0,0,1,1.54,4.71,4.71,0,0,0,3.34,1.39,5.05,5.05,0,0,0,1-.11,4.74,4.74,0,0,0,1-.34,5.27,5.27,0,0,0,.88-.53,5,5,0,0,0,.74-.72Z" style="fill:#fff"/><path d="M52.2,133.57a7.66,7.66,0,0,1,.29-2.1,7.91,7.91,0,0,1,.83-1.88A8.12,8.12,0,0,1,54.6,128a8.36,8.36,0,0,1,1.66-1.22,8,8,0,0,1,2-.79,8.32,8.32,0,0,1,2.19-.28,8.23,8.23,0,0,1,2.17.28,8.46,8.46,0,0,1,2,.79A8.36,8.36,0,0,1,66.2,128a8.17,8.17,0,0,1,1.29,1.59,7.88,7.88,0,0,1,.82,1.88,7.47,7.47,0,0,1,0,4.19,8,8,0,0,1-.82,1.89,8.17,8.17,0,0,1-1.29,1.59,7.64,7.64,0,0,1-1.66,1.22,8.46,8.46,0,0,1-2,.79,8.23,8.23,0,0,1-2.17.28,8.32,8.32,0,0,1-2.19-.28,8,8,0,0,1-2-.79,7.64,7.64,0,0,1-1.66-1.22,8.12,8.12,0,0,1-1.28-1.59,8,8,0,0,1-.83-1.89A7.59,7.59,0,0,1,52.2,133.57Zm3.49,0a4.87,4.87,0,0,0,.37,1.92,4.53,4.53,0,0,0,1,1.54,4.34,4.34,0,0,0,1.5,1,4.5,4.5,0,0,0,1.83.37,4.56,4.56,0,0,0,1.85-.37,4.44,4.44,0,0,0,1.5-1,4.95,4.95,0,0,0,1.37-3.46,5,5,0,0,0-.37-1.93,5.05,5.05,0,0,0-1-1.54,4.66,4.66,0,0,0-3.35-1.39,4.66,4.66,0,0,0-3.33,1.39,4.73,4.73,0,0,0-1,1.54A5,5,0,0,0,55.69,133.58Z" style="fill:#fff"/><path d="M76.65,126.09h3.5v12h6.28v3H76.65Z" style="fill:#fff"/><path d="M92.94,133.57a7.3,7.3,0,0,1,.29-2.1,7.53,7.53,0,0,1,.83-1.88A7.77,7.77,0,0,1,95.34,128a8.49,8.49,0,0,1,9.93-1.22,8.43,8.43,0,0,1,1.67,1.22,7.77,7.77,0,0,1,1.28,1.59,7.53,7.53,0,0,1,.83,1.88,7.71,7.71,0,0,1,0,4.19,7.6,7.6,0,0,1-.83,1.89,7.86,7.86,0,0,1-3,2.81,8.21,8.21,0,0,1-2,.79,8.63,8.63,0,0,1-4.36,0,8.21,8.21,0,0,1-2-.79,7.58,7.58,0,0,1-1.65-1.22,7.77,7.77,0,0,1-1.28-1.59,7.6,7.6,0,0,1-.83-1.89A7.23,7.23,0,0,1,92.94,133.57Zm3.48,0a5.05,5.05,0,0,0,.37,1.92,4.85,4.85,0,0,0,1,1.54,4.66,4.66,0,0,0,3.33,1.39,4.61,4.61,0,0,0,1.86-.37,4.4,4.4,0,0,0,1.49-1,4.68,4.68,0,0,0,1-1.54,5.05,5.05,0,0,0,.37-1.92,5.14,5.14,0,0,0-.37-1.93,4.9,4.9,0,0,0-1-1.54,4.7,4.7,0,0,0-1.49-1,4.78,4.78,0,0,0-3.69,0,4.86,4.86,0,0,0-1.5,1,5.08,5.08,0,0,0-1,1.54A5.14,5.14,0,0,0,96.42,133.58Z" style="fill:#fff"/><path d="M131.07,141.09h-3l-7.16-9v9h-3.49v-15h3l7.15,9v-9h3.49Z" style="fill:#fff"/><path d="M153.26,126.09l-5.79,9.32v5.68H144v-5.67l-5.77-9.33h4.07l3.43,6.14h0l3.44-6.14Z" style="fill:#fff"/></g></svg>