<svg xmlns="http://www.w3.org/2000/svg" viewBox="0 0 200 200"><g fill="#fff"><circle cx="100" cy="59.65" r="13.7"/><circle cx="100" cy="140.35" r="13.7"/><circle cx="140.35" cy="100" r="13.7"/><circle cx="59.65" cy="100" r="13.7"/><path d="M100 78.067l21.927 21.927L100 121.922 78.073 99.994zm24.67-2.747V51.85l23.47 23.47h-23.47zm-49.34.01H51.86l23.47-23.47v23.47zm0 49.34v23.47l-23.47-23.47h23.47zm49.34-.01h23.47l-23.47 23.47v-23.47z"/><circle cx="100" cy="59.65" r="13.7"/><circle cx="100" cy="140.35" r="13.7"/><circle cx="140.35" cy="100" r="13.7"/><circle cx="59.65" cy="100" r="13.7"/><path d="M100 78.067l21.927 21.927L100 121.922 78.073 99.994zm24.67-2.747V51.85l23.47 23.47h-23.47zm-49.34.01H51.86l23.47-23.47v23.47zm0 49.34v23.47l-23.47-23.47h23.47zm49.34-.01h23.47l-23.47 23.47v-23.47z"/></g></svg>