<svg xmlns="http://www.w3.org/2000/svg" viewBox="0 0 446 140"><g fill="#fff"><circle cx="68.36" cy="41.65" r="9.63"/><circle cx="68.36" cy="98.36" r="9.63"/><circle cx="96.71" cy="70" r="9.63"/><circle cx="40.01" cy="70" r="9.63"/><path d="M68.36 54.605l15.408 15.407L68.36 85.42 52.952 70.012zM51.03 52.67H34.54l16.49-16.49v16.49zm0 34.67v16.49L34.54 87.34h16.49zm34.66-.01h16.49l-16.49 16.49V87.33zm81.73-4.87a20 20 0 01-2.57 2.21 18.74 18.74 0 01-6.7 3 17.15 17.15 0 01-4 .45 19.68 19.68 0 01-9.58-2.47 18.49 18.49 0 01-6.78-6.52 18.13 18.13 0 01-1.91-4.34 17.6 17.6 0 010-9.69 18 18 0 011.91-4.35 18.33 18.33 0 013-3.67 19.4 19.4 0 013.82-2.83 18.76 18.76 0 014.53-1.82 19.47 19.47 0 015-.64 17.78 17.78 0 013.92.42 19.11 19.11 0 013.52 1.16 18.06 18.06 0 013.11 1.79 21.21 21.21 0 012.7 2.29l-4.92 5.23a10 10 0 00-3.7-2.91 10.82 10.82 0 00-4.63-1 10.8 10.8 0 00-7.7 3.21 11.13 11.13 0 00-2.34 3.56 12.07 12.07 0 000 8.9 11 11 0 002.37 3.56 10.76 10.76 0 0010.07 3 11.1 11.1 0 002.25-.78 10.82 10.82 0 002-1.24 10.61 10.61 0 001.71-1.64zM183 69.94a17.26 17.26 0 01.68-4.84 18 18 0 011.91-4.35 18.33 18.33 0 013-3.67 19.4 19.4 0 013.82-2.83 18.76 18.76 0 014.53-1.82 20.13 20.13 0 0110.07 0 19.23 19.23 0 018.38 4.65 18 18 0 014.89 8 17.85 17.85 0 010 9.69 17.77 17.77 0 01-1.92 4.34 18.08 18.08 0 01-3 3.69 18.3 18.3 0 01-3.85 2.83 20 20 0 01-4.51 1.84 19.73 19.73 0 01-14.6-1.82 18.49 18.49 0 01-6.78-6.52 18.13 18.13 0 01-1.91-4.34 17.28 17.28 0 01-.71-4.85zm8 .06a11.45 11.45 0 00.85 4.45 11 11 0 002.38 3.55 10.75 10.75 0 007.7 3.22 10.76 10.76 0 004.28-.86 10.6 10.6 0 003.45-2.36 11.09 11.09 0 002.34-3.58 11.94 11.94 0 000-8.9 11.24 11.24 0 00-2.34-3.52 10.57 10.57 0 00-3.45-2.35 10.76 10.76 0 00-4.28-.86 10.8 10.8 0 00-7.7 3.21 11.13 11.13 0 00-2.34 3.56A11.45 11.45 0 00191 70zm48.27-17.34h8.08v27.73h14.53v6.94h-22.61zm37.39 17.28a17.25 17.25 0 01.67-4.84 18 18 0 011.91-4.35 18.33 18.33 0 013-3.67 19.4 19.4 0 013.76-2.83 18.92 18.92 0 014.53-1.82 20.13 20.13 0 0110.07 0 19.16 19.16 0 014.54 1.82 19.6 19.6 0 013.86 2.83 18.38 18.38 0 013 3.67 18 18 0 011.91 4.35 17.85 17.85 0 010 9.69 18.13 18.13 0 01-1.91 4.34 18.41 18.41 0 01-6.82 6.52 20 20 0 01-4.54 1.82 19.83 19.83 0 01-10.07 0 19.78 19.78 0 01-4.57-1.82 18.49 18.49 0 01-6.78-6.52 18.13 18.13 0 01-1.91-4.34 17.27 17.27 0 01-.65-4.85zm8 0a11.46 11.46 0 00.86 4.45A10.79 10.79 0 00287.9 78a10.9 10.9 0 0012 2.36 10.39 10.39 0 003.43-2.36 11.09 11.09 0 002.32-3.55 11.94 11.94 0 000-8.9 11.24 11.24 0 00-2.32-3.55 10.36 10.36 0 00-3.45-2.35 11 11 0 00-8.52 0A10.61 10.61 0 00287.9 62a10.94 10.94 0 00-2.33 3.56 11.46 11.46 0 00-.86 4.44zm79.89 17.39h-7L341 66.55v20.78h-8.08V52.66h7l16.52 20.72V52.66h8.06zm51.07-34.67L402.23 74.2v13.13h-8.08v-13.1l-13.31-21.57h9.41l7.93 14.2h.08l7.92-14.2zm-329.93.01V36.18l16.49 16.49H85.69z"/></g></svg>