<svg xmlns="http://www.w3.org/2000/svg" viewBox="0 0 185 175"><g fill="#00284b"><circle cx="92.4" cy="40.47" r="9.63"/><circle cx="92.4" cy="97.17" r="9.63"/><circle cx="120.75" cy="68.82" r="9.63"/><circle cx="64.04" cy="68.82" r="9.63"/><path d="M92.394 53.405L107.8 68.813 92.394 84.22 76.986 68.813zm17.336-1.925V34.99l16.49 16.49h-16.49zm-34.67.01H58.57L75.06 35v16.49zm0 34.66v16.49L58.57 86.15h16.49zm34.67 0h16.49l-16.49 16.49V86.15zM45.51 139a8.71 8.71 0 01-1.11 1 7.43 7.43 0 01-1.35.78 8.3 8.3 0 01-1.55.52 7.46 7.46 0 01-1.73.19 8.3 8.3 0 01-2.18-.28 8.21 8.21 0 01-2-.79 7.58 7.58 0 01-1.59-1.28 7.77 7.77 0 01-1.28-1.59 7.6 7.6 0 01-.83-1.89 7.71 7.71 0 010-4.19 7.53 7.53 0 01.83-1.88A7.77 7.77 0 0134 128a8.39 8.39 0 015.79-2.29 7.71 7.71 0 011.7.18 8.33 8.33 0 011.53.51 7.75 7.75 0 011.34.77 9.28 9.28 0 011.17 1l-2.13 2.26a4.35 4.35 0 00-1.6-1.25 4.62 4.62 0 00-2-.45 4.75 4.75 0 00-1.83.37 4.86 4.86 0 00-1.5 1 5.08 5.08 0 00-1 1.54 5.14 5.14 0 00-.37 1.93 5.05 5.05 0 00.37 1.92 4.85 4.85 0 001 1.54 4.66 4.66 0 003.33 1.39 5.07 5.07 0 001-.11 5 5 0 001-.34 4.81 4.81 0 00.87-.53 4.2 4.2 0 00.74-.72zm6.85-5.43a7.66 7.66 0 01.29-2.1 7.91 7.91 0 01.83-1.88 8.12 8.12 0 011.28-1.59 8.59 8.59 0 011.65-1.22 8.21 8.21 0 012-.79 8.32 8.32 0 012.19-.28 8.46 8.46 0 014.13 1.07 8.43 8.43 0 011.63 1.22 7.77 7.77 0 011.28 1.59 7.53 7.53 0 01.83 1.88 7.71 7.71 0 010 4.19 7.6 7.6 0 01-.83 1.89 7.86 7.86 0 01-3 2.81 8.46 8.46 0 01-4.13 1.07 8.32 8.32 0 01-2.19-.28 8.21 8.21 0 01-2-.79 7.83 7.83 0 01-1.65-1.22 8.12 8.12 0 01-1.28-1.59 8 8 0 01-.83-1.89 7.59 7.59 0 01-.2-2.09zm3.49 0a5 5 0 00.36 1.92 4.85 4.85 0 001 1.54 4.71 4.71 0 003.34 1.39 4.56 4.56 0 001.85-.37 4.4 4.4 0 001.49-1 4.68 4.68 0 001-1.54 5.05 5.05 0 00.37-1.92 5.14 5.14 0 00-.37-1.93 4.9 4.9 0 00-1-1.54 4.71 4.71 0 00-5.17-1 4.79 4.79 0 00-1.51 1 5.08 5.08 0 00-1 1.54 5.14 5.14 0 00-.36 1.92zm20.96-7.48h3.49v12h6.29v3h-9.78zm16.29 7.48a7.3 7.3 0 01.29-2.1 7.53 7.53 0 01.83-1.88A7.77 7.77 0 0195.5 128a8 8 0 011.65-1.22 8.21 8.21 0 012-.79 8.52 8.52 0 016.32.79 8.43 8.43 0 011.63 1.22 8.12 8.12 0 011.28 1.59 7.91 7.91 0 01.83 1.88 7.71 7.71 0 010 4.19 8 8 0 01-.83 1.89 8.12 8.12 0 01-1.28 1.59 7.7 7.7 0 01-1.67 1.22 8.57 8.57 0 01-6.32.79 8.21 8.21 0 01-2-.79 7.35 7.35 0 01-1.65-1.22 7.77 7.77 0 01-1.28-1.59 7.6 7.6 0 01-.83-1.89 7.23 7.23 0 01-.25-2.09zm3.48 0a5.05 5.05 0 00.42 1.93 4.68 4.68 0 001 1.5 4.66 4.66 0 003.33 1.39 4.64 4.64 0 001.86-.37 4.4 4.4 0 001.49-1 4.85 4.85 0 001-1.54 5 5 0 00.36-1.92 5.14 5.14 0 00-.36-1.93 5.08 5.08 0 00-1-1.54 4.7 4.7 0 00-1.49-1 4.82 4.82 0 00-1.86-.37 4.75 4.75 0 00-1.83.37 4.68 4.68 0 00-2.5 2.56 5.14 5.14 0 00-.42 1.93zm34.64 7.52h-3l-7.16-9v9h-3.5v-15h3l7.15 9v-9h3.48zm22.2-15l-5.8 9.32v5.68h-3.5v-5.67l-5.77-9.33h4.07l3.43 6.14 3.43-6.14z"/></g></svg>