<svg xmlns="http://www.w3.org/2000/svg" viewBox="0 0 185 175"><g fill="#fff"><circle cx="92.24" cy="40.47" r="9.63"/><circle cx="92.24" cy="97.17" r="9.63"/><circle cx="120.59" cy="68.82" r="9.63"/><circle cx="63.88" cy="68.82" r="9.63"/><path d="M92.24 53.412l15.408 15.408L92.24 84.227 76.833 68.82zm17.33-1.932V34.99l16.49 16.49h-16.49zm-34.67.01H58.41L74.9 35v16.49zm0 34.66v16.49L58.41 86.15H74.9zm34.67 0h16.49l-16.49 16.49V86.15zM45.35 139a8.71 8.71 0 01-1.11 1 7.43 7.43 0 01-1.35.78 8.3 8.3 0 01-1.55.52 7.43 7.43 0 01-1.72.19 8.32 8.32 0 01-2.19-.28 8.21 8.21 0 01-2-.79 7.83 7.83 0 01-1.65-1.22 8.12 8.12 0 01-1.28-1.59 8 8 0 01-.83-1.89 7.71 7.71 0 010-4.19 7.91 7.91 0 01.83-1.88 8.12 8.12 0 011.32-1.65 8.59 8.59 0 011.65-1.22 8.21 8.21 0 012-.79 8.32 8.32 0 012.19-.28 7.84 7.84 0 011.7.18 8.48 8.48 0 011.52.51 7.4 7.4 0 011.34.77 9.28 9.28 0 011.17 1l-2.13 2.26a4.27 4.27 0 00-1.6-1.25 4.61 4.61 0 00-2-.45 4.67 4.67 0 00-1.83.37 4.79 4.79 0 00-1.51 1 5.08 5.08 0 00-1 1.54 5.14 5.14 0 00-.36 1.93 5 5 0 00.36 1.92 4.85 4.85 0 001 1.54 4.71 4.71 0 003.34 1.39 5.05 5.05 0 001-.11 4.74 4.74 0 001-.34 5.27 5.27 0 00.88-.53 5 5 0 00.74-.72zm6.85-5.43a7.66 7.66 0 01.29-2.1 7.91 7.91 0 01.83-1.88A8.12 8.12 0 0154.6 128a8.36 8.36 0 011.66-1.22 8 8 0 012-.79 8.32 8.32 0 012.19-.28 8.23 8.23 0 012.17.28 8.46 8.46 0 012 .79A8.36 8.36 0 0166.2 128a8.17 8.17 0 011.29 1.59 7.88 7.88 0 01.82 1.88 7.47 7.47 0 010 4.19 8 8 0 01-.82 1.89 8.17 8.17 0 01-1.29 1.59 7.64 7.64 0 01-1.66 1.22 8.46 8.46 0 01-2 .79 8.23 8.23 0 01-2.17.28 8.32 8.32 0 01-2.19-.28 8 8 0 01-2-.79 7.64 7.64 0 01-1.66-1.22 8.12 8.12 0 01-1.28-1.59 8 8 0 01-.83-1.89 7.59 7.59 0 01-.21-2.09zm3.49 0a4.87 4.87 0 00.37 1.92 4.53 4.53 0 001 1.54 4.34 4.34 0 001.5 1 4.5 4.5 0 001.83.37 4.56 4.56 0 001.85-.37 4.44 4.44 0 001.5-1 4.95 4.95 0 001.37-3.46 5 5 0 00-.37-1.93 5.05 5.05 0 00-1-1.54 4.66 4.66 0 00-3.35-1.39 4.66 4.66 0 00-3.33 1.39 4.73 4.73 0 00-1 1.54 5 5 0 00-.37 1.94zm20.96-7.48h3.5v12h6.28v3h-9.78zm16.29 7.48a7.3 7.3 0 01.29-2.1 7.53 7.53 0 01.83-1.88 7.77 7.77 0 011.28-1.59 8.49 8.49 0 019.93-1.22 8.43 8.43 0 011.67 1.22 7.77 7.77 0 011.28 1.59 7.53 7.53 0 01.83 1.88 7.71 7.71 0 010 4.19 7.6 7.6 0 01-.83 1.89 7.86 7.86 0 01-3 2.81 8.21 8.21 0 01-2 .79 8.63 8.63 0 01-4.36 0 8.21 8.21 0 01-2-.79 7.58 7.58 0 01-1.65-1.22 7.77 7.77 0 01-1.28-1.59 7.6 7.6 0 01-.83-1.89 7.23 7.23 0 01-.16-2.09zm3.48 0a5.05 5.05 0 00.37 1.92 4.85 4.85 0 001 1.54 4.66 4.66 0 003.33 1.39 4.61 4.61 0 001.86-.37 4.4 4.4 0 001.49-1 4.68 4.68 0 001-1.54 5.05 5.05 0 00.37-1.92 5.14 5.14 0 00-.37-1.93 4.9 4.9 0 00-1-1.54 4.7 4.7 0 00-1.49-1 4.78 4.78 0 00-3.69 0 4.86 4.86 0 00-1.5 1 5.08 5.08 0 00-1 1.54 5.14 5.14 0 00-.37 1.92zm34.65 7.52h-3l-7.16-9v9h-3.49v-15h3l7.15 9v-9h3.49zm22.19-15l-5.79 9.32v5.68H144v-5.67l-5.77-9.33h4.07l3.43 6.14 3.44-6.14z"/></g></svg>